# xmcd CD database file
#
# Track frame offsets:
#	150
#	31878
#	59858
#	81358
#	101733
#	132808
#	170755
#	183468
#	203778
#	219620
#
# Disc length: 3168 seconds
#
# Revision: 0
# Processed by: cddbd v1.5.1PL2 Copyright (c) Steve Scherf et al.
# Submitted via: CDex 1.51
#
DISCID=970c5e0a
DTITLE=Rory Gallagher - Blueprint
DYEAR=1973
DGENRE=Blues
TTITLE0=Rory Gallagher - Walk On Hot Coals
TTITLE1=Rory Gallagher - Daughter Of The Everglades
TTITLE2=Rory Gallagher - Banker's Blues
TTITLE3=Rory Gallagher - Hands Off
TTITLE4=Rory Gallagher - Race The Breeze
TTITLE5=Rory Gallagher - Seventh Son Of A Seventh Son
TTITLE6=Rory Gallagher - Unmilitary Two-Step
TTITLE7=Rory Gallagher - If I Had A Reason
TTITLE8=Rory Gallagher - Stompin' Ground (alt version)
TTITLE9=Rory Gallagher - Treat Her Right
EXTD=YEAR: 1973
EXTT0=
EXTT1=
EXTT2=
EXTT3=
EXTT4=
EXTT5=
EXTT6=
EXTT7=
EXTT8=
EXTT9=
PLAYORDER=
